<svg id="ic_dashboard_Selected" xmlns="http://www.w3.org/2000/svg" width="18.157" height="18.611" viewBox="0 0 18.157 18.611">
  <path id="Path_1357" data-name="Path 1357" d="M27.152,31.34l-6.523,4.733a2.549,2.549,0,0,1-3.615,0L10.492,31.34a2.549,2.549,0,0,1,0-3.615l6.523-4.733a2.549,2.549,0,0,1,3.615,0l6.523,4.733A2.565,2.565,0,0,1,27.152,31.34Z" transform="translate(-9.74 -18.214)" fill="#284065"/>
  <path id="Path_1358" data-name="Path 1358" d="M27.152,26.84l-6.523,4.733a2.549,2.549,0,0,1-3.615,0L10.492,26.84a2.549,2.549,0,0,1,0-3.615l6.523-4.733a2.549,2.549,0,0,1,3.615,0l6.523,4.733A2.565,2.565,0,0,1,27.152,26.84Z" transform="translate(-9.74 -17.74)" fill="#349aff"/>
</svg>
