<svg xmlns="http://www.w3.org/2000/svg" width="19.897" height="16.692" viewBox="0 0 19.897 16.692">
  <g id="ic_productLib" transform="translate(0 0)">
    <path id="Path_1359" data-name="Path 1359" d="M13.24,97.181h-2.1A1.388,1.388,0,0,1,9.75,95.794V81.907a1.388,1.388,0,0,1,1.387-1.387h2.1a1.388,1.388,0,0,1,1.387,1.387V95.8A1.386,1.386,0,0,1,13.24,97.181Z" transform="translate(-9.75 -80.499)" fill="#373754"/>
    <path id="Path_1363" data-name="Path 1363" d="M20.14,97.181h-2.1a1.388,1.388,0,0,1-1.387-1.387V81.907a1.388,1.388,0,0,1,1.387-1.387h2.1a1.388,1.388,0,0,1,1.387,1.387V95.8A1.38,1.38,0,0,1,20.14,97.181Z" transform="translate(-10.476 -80.499)" fill="#373754"/>
    <circle id="Ellipse_199" data-name="Ellipse 199" cx="1.047" cy="1.047" r="1.047" transform="translate(1.387 12.342)" fill="#494b74"/>
    <circle id="Ellipse_200" data-name="Ellipse 200" cx="1.047" cy="1.047" r="1.047" transform="translate(7.57 12.342)" fill="#494b74"/>
    <path id="Path_1364" data-name="Path 1364" d="M29.971,96.543l-2.013.591a1.394,1.394,0,0,1-1.727-.94L22.293,82.871a1.394,1.394,0,0,1,.94-1.727l2.013-.591a1.394,1.394,0,0,1,1.727.94L30.9,94.816A1.378,1.378,0,0,1,29.971,96.543Z" transform="translate(-11.064 -80.497)" fill="#494b74"/>
    <circle id="Ellipse_201" data-name="Ellipse 201" cx="1.047" cy="1.047" r="1.047" transform="translate(15.918 12.136)" fill="#373754"/>
  </g>
</svg>
