<svg id="ic_shopfloorcollection_Selected" xmlns="http://www.w3.org/2000/svg" width="19.059" height="17.305" viewBox="0 0 19.059 17.305">
  <path id="Path_1366" data-name="Path 1366" d="M13.335,127.313H27.016a1.142,1.142,0,0,0,1.145-1.145V114.625a1.142,1.142,0,0,0-1.145-1.145H13.335a1.142,1.142,0,0,0-1.145,1.145v11.543A1.142,1.142,0,0,0,13.335,127.313Z" transform="translate(-9.103 -113.48)" fill="#349aff"/>
  <path id="Path_1367" data-name="Path 1367" d="M24.291,131.1H9.635a.9.9,0,0,1-.895-.895V117.375a.895.895,0,0,1,1.79,0v11.936H24.282a.895.895,0,0,1,.009,1.79Z" transform="translate(-8.74 -113.796)" fill="#21497f"/>
  <g id="Group_379" data-name="Group 379" transform="translate(6.362 3.785)">
    <path id="Path_1368" data-name="Path 1368" d="M24.708,118.6H16.4a.458.458,0,1,1,0-.895h8.3a.458.458,0,1,1,0,.895Z" transform="translate(-15.85 -117.71)" fill="#284065"/>
    <path id="Path_1369" data-name="Path 1369" d="M24.708,121.6H16.4a.458.458,0,1,1,0-.895h8.3a.458.458,0,1,1,0,.895Z" transform="translate(-15.85 -118.026)" fill="#284065"/>
    <path id="Path_1370" data-name="Path 1370" d="M20.834,124.6H16.4a.458.458,0,1,1,0-.895h4.429a.458.458,0,1,1,0,.895Z" transform="translate(-15.85 -118.341)" fill="#284065"/>
  </g>
</svg>
