<svg xmlns="http://www.w3.org/2000/svg" width="22.237" height="18.656" viewBox="0 0 22.237 18.656">
  <g id="ic_products" transform="translate(14567.99 4174.503)">
    <path id="Path_1670" data-name="Path 1670" d="M13.65,99.14H11.3a1.551,1.551,0,0,1-1.55-1.55V82.07a1.551,1.551,0,0,1,1.55-1.55h2.35a1.551,1.551,0,0,1,1.55,1.55V97.6A1.549,1.549,0,0,1,13.65,99.14Z" transform="translate(-14577.74 -4255)" fill="#373754"/>
    <path id="Path_1676" data-name="Path 1676" d="M20.55,99.14H18.2a1.551,1.551,0,0,1-1.55-1.55V82.07a1.551,1.551,0,0,1,1.55-1.55h2.35a1.551,1.551,0,0,1,1.55,1.55V97.6A1.543,1.543,0,0,1,20.55,99.14Z" transform="translate(-14577.74 -4255)" fill="#373754"/>
    <circle id="Ellipse_264" data-name="Ellipse 264" cx="1.17" cy="1.17" r="1.17" transform="translate(-14566.44 -4160.71)" fill="#494b74"/>
    <circle id="Ellipse_265" data-name="Ellipse 265" cx="1.17" cy="1.17" r="1.17" transform="translate(-14559.53 -4160.71)" fill="#494b74"/>
    <path id="Path_1677" data-name="Path 1677" d="M30.88,98.43l-2.25.66a1.558,1.558,0,0,1-1.93-1.05L22.3,83.15a1.558,1.558,0,0,1,1.05-1.93l2.25-.66a1.558,1.558,0,0,1,1.93,1.05L31.92,96.5A1.54,1.54,0,0,1,30.88,98.43Z" transform="translate(-14577.74 -4255)" fill="#494b74"/>
    <circle id="Ellipse_266" data-name="Ellipse 266" cx="1.17" cy="1.17" r="1.17" transform="translate(-14550.2 -4160.94)" fill="#373754"/>
  </g>
</svg>
