<svg xmlns="http://www.w3.org/2000/svg" width="20.41" height="20.41" viewBox="0 0 20.41 20.41">
  <g id="ic_prepress" transform="translate(14567.141 4034.16)">
    <path id="Path_1691" data-name="Path 1691" d="M30.45,229.25l-.88-.05a9.167,9.167,0,0,0-1.26-3.05l.56-.63a.592.592,0,0,0-.03-.82l-1.69-1.69a.613.613,0,0,0-.82-.03l-.63.56a8.768,8.768,0,0,0-3.05-1.26l-.05-.88a.594.594,0,0,0-.6-.56H19.61a.6.6,0,0,0-.6.56l-.05.88a9.167,9.167,0,0,0-3.05,1.26l-.63-.56a.592.592,0,0,0-.82.03l-1.69,1.69a.613.613,0,0,0-.03.82l.56.63a8.69,8.69,0,0,0-1.26,3.05l-.88.05a.594.594,0,0,0-.56.6v2.39a.6.6,0,0,0,.56.6l.88.05a9.167,9.167,0,0,0,1.26,3.05l-.56.63a.592.592,0,0,0,.03.82l1.69,1.69a.613.613,0,0,0,.82.03l.63-.56a8.768,8.768,0,0,0,3.05,1.26l.05.88a.594.594,0,0,0,.6.56H22a.6.6,0,0,0,.6-.56l.05-.88a9.167,9.167,0,0,0,3.05-1.26l.63.56a.592.592,0,0,0,.82-.03l1.69-1.69a.613.613,0,0,0,.03-.82l-.56-.63a8.69,8.69,0,0,0,1.26-3.05l.88-.05a.594.594,0,0,0,.56-.6v-2.39A.6.6,0,0,0,30.45,229.25Z" transform="translate(-14577.74 -4255)" fill="#494b74"/>
    <path id="Path_1692" data-name="Path 1692" d="M23.32,230.58l-.23-.01a2.289,2.289,0,0,0-.33-.79l.14-.16a.155.155,0,0,0-.01-.21l-.44-.44a.155.155,0,0,0-.21-.01l-.16.14a2.289,2.289,0,0,0-.79-.33l-.01-.23a.163.163,0,0,0-.16-.15H20.5a.162.162,0,0,0-.16.15l-.01.23a2.289,2.289,0,0,0-.79.33l-.16-.14a.155.155,0,0,0-.21.01l-.44.44a.155.155,0,0,0-.01.21l.14.16a2.289,2.289,0,0,0-.33.79l-.23.01a.163.163,0,0,0-.15.16v.62a.162.162,0,0,0,.15.16l.23.01a2.289,2.289,0,0,0,.33.79l-.14.16a.155.155,0,0,0,.01.21l.44.44a.155.155,0,0,0,.21.01l.16-.14a2.289,2.289,0,0,0,.79.33l.01.23a.163.163,0,0,0,.16.15h.62a.162.162,0,0,0,.16-.15l.01-.23a2.289,2.289,0,0,0,.79-.33l.16.14a.155.155,0,0,0,.21-.01l.44-.44a.155.155,0,0,0,.01-.21l-.14-.16a2.289,2.289,0,0,0,.33-.79l.23-.01a.163.163,0,0,0,.15-.16v-.62A.15.15,0,0,0,23.32,230.58Z" transform="translate(-14577.74 -4255)" fill="#373754"/>
  </g>
</svg>
