<svg xmlns="http://www.w3.org/2000/svg" width="21.45" height="19.273" viewBox="0 0 21.45 19.273">
  <g id="ic_dashboard" transform="translate(14568 4237.26)">
    <path id="Path_1668" data-name="Path 1668" d="M30.311,31.3,22.6,36.009a3.421,3.421,0,0,1-4.271,0L10.628,31.3a2.266,2.266,0,0,1,0-3.6l7.706-4.711a3.421,3.421,0,0,1,4.271,0L30.311,27.7A2.279,2.279,0,0,1,30.311,31.3Z" transform="translate(-14577.74 -4254.743)" fill="#373754"/>
    <path id="Path_1669" data-name="Path 1669" d="M30.311,26.8,22.6,31.509a3.421,3.421,0,0,1-4.271,0L10.628,26.8a2.266,2.266,0,0,1,0-3.6l7.706-4.711a3.421,3.421,0,0,1,4.271,0L30.311,23.2A2.279,2.279,0,0,1,30.311,26.8Z" transform="translate(-14577.74 -4255)" fill="#494b74"/>
  </g>
</svg>
