<svg xmlns="http://www.w3.org/2000/svg" width="21.94" height="16.48" viewBox="0 0 21.94 16.48">
  <g id="ic_materialvisibility_selected" transform="translate(14567.48 3984.56)">
    <g id="Group_567" data-name="Group 567" transform="translate(-14577.74 -4255)">
      <path id="Path_1703" data-name="Path 1703" d="M21.01,270.7l-.35-.26-10.4,4.3.54.42c.21.16,7.13,4.01,11.02,4.01H22l10.2-4.83H30.18c-3.4-.01-9.12-3.61-9.17-3.64Z" fill="#349aff"/>
      <path id="Path_1704" data-name="Path 1704" d="M27.86,281.63l-5.49,2.36h-.56a24.206,24.206,0,0,1-9.43-2.61l-2.12,1.08.54.42c.21.16,7.13,4.04,11.02,4.04H22l10.2-4.86H30.18A7.567,7.567,0,0,1,27.86,281.63Z" fill="#349aff"/>
      <path id="Path_1705" data-name="Path 1705" d="M27.86,277.77l-5.49,2.36h-.56a24.206,24.206,0,0,1-9.43-2.61l-2.12,1.08.54.42c.21.16,7.13,4.01,11.02,4.01H22l10.2-4.83H30.18A8.216,8.216,0,0,1,27.86,277.77Z" fill="#284065"/>
    </g>
  </g>
</svg>
