<svg xmlns="http://www.w3.org/2000/svg" width="20.75" height="18.64" viewBox="0 0 20.75 18.64">
  <g id="ic_orders-selected" transform="translate(14567.3 4083.7)">
    <path id="Path_1672" data-name="Path 1672" d="M15.82,172.3h0a1,1,0,0,0,1,1h8a1,1,0,0,0,1-1h0a1,1,0,0,0-1-1h-8A1,1,0,0,0,15.82,172.3Z" transform="translate(-14577.74 -4255)" fill="#284065"/>
    <path id="Path_1678" data-name="Path 1678" d="M11.72,189.94H29.91a1.276,1.276,0,0,0,1.28-1.28v-12.9a1.276,1.276,0,0,0-1.28-1.28H11.72a1.276,1.276,0,0,0-1.28,1.28v12.9A1.276,1.276,0,0,0,11.72,189.94Z" transform="translate(-14577.74 -4255)" fill="#349aff"/>
    <path id="Path_1685" data-name="Path 1685" d="M23.11,179.71H14.4a.506.506,0,1,1,0-1h8.71a.506.506,0,1,1,0,1Z" transform="translate(-14577.74 -4255)" fill="#284065"/>
    <path id="Path_1686" data-name="Path 1686" d="M26.99,182.71H14.64c-.46,0-.82-.22-.82-.5s.37-.5.82-.5H26.99c.46,0,.82.22.82.5S27.45,182.71,26.99,182.71Z" transform="translate(-14577.74 -4255)" fill="#284065"/>
    <path id="Path_1687" data-name="Path 1687" d="M26.99,185.71H14.64c-.46,0-.82-.22-.82-.5s.37-.5.82-.5H26.99c.46,0,.82.22.82.5S27.45,185.71,26.99,185.71Z" transform="translate(-14577.74 -4255)" fill="#284065"/>
  </g>
</svg>
