<svg xmlns="http://www.w3.org/2000/svg" width="20.75" height="18.12" viewBox="0 0 20.75 18.12">
  <g id="ic_planning_selected" transform="translate(14567.3 4009.55)">
    <g id="Group_562" data-name="Group 562" transform="translate(-14577.74 -4255)">
      <path id="Path_1673" data-name="Path 1673" d="M14.25,249.54h0a1,1,0,0,0,1-1v-2.09a1,1,0,0,0-1-1h0a1,1,0,0,0-1,1v2.09A1,1,0,0,0,14.25,249.54Z" fill="#284065"/>
      <path id="Path_1674" data-name="Path 1674" d="M27.39,249.54h0a1,1,0,0,0,1-1v-2.09a1,1,0,0,0-1-1h0a1,1,0,0,0-1,1v2.09A1,1,0,0,0,27.39,249.54Z" fill="#284065"/>
    </g>
    <path id="Path_1679" data-name="Path 1679" d="M11.72,263.57H29.91a1.276,1.276,0,0,0,1.28-1.28v-12.9a1.276,1.276,0,0,0-1.28-1.28H11.72a1.276,1.276,0,0,0-1.28,1.28v12.9A1.276,1.276,0,0,0,11.72,263.57Z" transform="translate(-14577.74 -4255)" fill="#349aff"/>
    <g id="Group_565" data-name="Group 565" transform="translate(-14577.74 -4255)">
      <path id="Path_1693" data-name="Path 1693" d="M14.59,253H13.43a.469.469,0,0,1-.47-.47v-1.16a.469.469,0,0,1,.47-.47h1.16a.469.469,0,0,1,.47.47v1.16A.469.469,0,0,1,14.59,253Z" fill="#284065"/>
      <path id="Path_1694" data-name="Path 1694" d="M19.12,253H17.96a.469.469,0,0,1-.47-.47v-1.16a.469.469,0,0,1,.47-.47h1.16a.469.469,0,0,1,.47.47v1.16A.463.463,0,0,1,19.12,253Z" fill="#284065"/>
      <path id="Path_1695" data-name="Path 1695" d="M23.66,253H22.5a.469.469,0,0,1-.47-.47v-1.16a.469.469,0,0,1,.47-.47h1.16a.469.469,0,0,1,.47.47v1.16A.469.469,0,0,1,23.66,253Z" fill="#284065"/>
      <path id="Path_1696" data-name="Path 1696" d="M28.2,253H27.04a.469.469,0,0,1-.47-.47v-1.16a.469.469,0,0,1,.47-.47H28.2a.469.469,0,0,1,.47.47v1.16A.469.469,0,0,1,28.2,253Z" fill="#284065"/>
    </g>
    <g id="Group_566" data-name="Group 566" transform="translate(-14577.74 -4255)">
      <path id="Path_1697" data-name="Path 1697" d="M14.59,256.89H13.43a.469.469,0,0,1-.47-.47v-1.16a.469.469,0,0,1,.47-.47h1.16a.469.469,0,0,1,.47.47v1.16A.469.469,0,0,1,14.59,256.89Z" fill="#284065"/>
      <path id="Path_1698" data-name="Path 1698" d="M19.12,256.89H17.96a.469.469,0,0,1-.47-.47v-1.16a.469.469,0,0,1,.47-.47h1.16a.469.469,0,0,1,.47.47v1.16A.463.463,0,0,1,19.12,256.89Z" fill="#284065"/>
      <path id="Path_1699" data-name="Path 1699" d="M23.66,256.89H22.5a.469.469,0,0,1-.47-.47v-1.16a.469.469,0,0,1,.47-.47h1.16a.469.469,0,0,1,.47.47v1.16A.469.469,0,0,1,23.66,256.89Z" fill="#284065"/>
      <path id="Path_1700" data-name="Path 1700" d="M28.2,256.89H27.04a.469.469,0,0,1-.47-.47v-1.16a.469.469,0,0,1,.47-.47H28.2a.469.469,0,0,1,.47.47v1.16A.469.469,0,0,1,28.2,256.89Z" fill="#284065"/>
    </g>
    <path id="Path_1701" data-name="Path 1701" d="M14.59,260.77H13.43a.469.469,0,0,1-.47-.47v-1.16a.469.469,0,0,1,.47-.47h1.16a.469.469,0,0,1,.47.47v1.16A.469.469,0,0,1,14.59,260.77Z" transform="translate(-14577.74 -4255)" fill="#284065"/>
    <path id="Path_1702" data-name="Path 1702" d="M19.12,260.77H17.96a.469.469,0,0,1-.47-.47v-1.16a.469.469,0,0,1,.47-.47h1.16a.469.469,0,0,1,.47.47v1.16A.463.463,0,0,1,19.12,260.77Z" transform="translate(-14577.74 -4255)" fill="#284065"/>
  </g>
</svg>
