<svg xmlns="http://www.w3.org/2000/svg" width="19.88" height="19.698" viewBox="0 0 19.88 19.698">
  <g id="Group_579" data-name="Group 579" transform="translate(14566.66 4060.718)">
    <path id="Path_1688" data-name="Path 1688" d="M11.08,202.38v9.43a2.168,2.168,0,0,0,2.17,2.17H28.79a2.168,2.168,0,0,0,2.17-2.17v-9.47a2.965,2.965,0,0,0-1.2-2.39l-6.78-5.07a2.986,2.986,0,0,0-3.53-.04l-7.12,5.11A2.964,2.964,0,0,0,11.08,202.38Z" transform="translate(-14577.74 -4255)" fill="#349aff"/>
    <circle id="Ellipse_267" data-name="Ellipse 267" cx="1.83" cy="1.83" r="1.83" transform="translate(-14558.55 -4056.4)" fill="#284065"/>
    <path id="Path_1689" data-name="Path 1689" d="M25.37,207.72H16.66a.506.506,0,1,1,0-1h8.71a.542.542,0,0,1,.58.5A.536.536,0,0,1,25.37,207.72Z" transform="translate(-14577.74 -4255)" fill="#284065"/>
    <path id="Path_1690" data-name="Path 1690" d="M25.37,210.72H16.66a.506.506,0,1,1,0-1h8.71a.542.542,0,0,1,.58.5A.536.536,0,0,1,25.37,210.72Z" transform="translate(-14577.74 -4255)" fill="#284065"/>
  </g>
</svg>
