<svg xmlns="http://www.w3.org/2000/svg" width="21.3" height="19.34" viewBox="0 0 21.3 19.34">
  <g id="ic_shopfloor_selected" transform="translate(14569 4141.52)">
    <path id="Path_1680" data-name="Path 1680" d="M13.47,128.94H28.76a1.276,1.276,0,0,0,1.28-1.28v-12.9a1.276,1.276,0,0,0-1.28-1.28H13.47a1.276,1.276,0,0,0-1.28,1.28v12.9A1.276,1.276,0,0,0,13.47,128.94Z" transform="translate(-14577.74 -4255)" fill="#349aff"/>
    <path id="Path_1681" data-name="Path 1681" d="M26.12,132.82H10.27a1.53,1.53,0,0,1-1.53-1.53V117.48a1,1,0,0,1,2,0v12.04a1.3,1.3,0,0,0,1.3,1.3H26.11a1,1,0,0,1,.01,2Z" transform="translate(-14577.74 -4255)" fill="#284065"/>
    <g id="Group_564" data-name="Group 564" transform="translate(-14577.74 -4255)">
      <path id="Path_1682" data-name="Path 1682" d="M25.75,118.71H16.47a.512.512,0,1,1,0-1h9.28a.512.512,0,1,1,0,1Z" fill="#284065"/>
      <path id="Path_1683" data-name="Path 1683" d="M25.75,121.71H16.47a.512.512,0,1,1,0-1h9.28a.512.512,0,1,1,0,1Z" fill="#284065"/>
      <path id="Path_1684" data-name="Path 1684" d="M21.42,124.71H16.47a.512.512,0,1,1,0-1h4.95a.512.512,0,1,1,0,1Z" fill="#284065"/>
    </g>
  </g>
</svg>
