<svg xmlns="http://www.w3.org/2000/svg" width="20.67" height="12.641" viewBox="0 0 20.67 12.641">
  <g id="Group_603" data-name="Group 603" transform="translate(-1082 -1076)">
    <g id="ic_job" transform="translate(1075.122 1064.613)">
      <path id="Path_1718" data-name="Path 1718" d="M31.048,34.182V33.84a.755.755,0,1,0-1.511,0v.342a.755.755,0,1,0,1.511,0Z" transform="translate(-15.711 -15.044)" fill="#343434"/>
      <path id="Path_1719" data-name="Path 1719" d="M16.555,37.555a1.329,1.329,0,0,1-2.547,0H8.8a2.129,2.129,0,0,1-.917-.209V40.8a1.23,1.23,0,0,0,1.227,1.227H21.448A1.23,1.23,0,0,0,22.675,40.8V37.346a2.13,2.13,0,0,1-.917.209h-5.2Z" transform="translate(-0.7 -17.999)" fill="#343434"/>
      <path id="Path_1720" data-name="Path 1720" d="M21.007,13.352H18.063a2.336,2.336,0,0,0-2.3-1.965H13.4a2.336,2.336,0,0,0-2.3,1.965H8.156a1.257,1.257,0,0,0-1.278,1.227V17.41A1.227,1.227,0,0,0,8.1,18.636H13.25a1.331,1.331,0,0,1,.408-.9c.007-.007.016-.013.024-.019a1.347,1.347,0,0,1,.169-.135c.021-.014.046-.024.068-.037a1.311,1.311,0,0,1,.152-.08,1.336,1.336,0,0,1,.132-.041c.038-.011.074-.026.114-.034a1.322,1.322,0,0,1,.265-.027,1.342,1.342,0,0,1,.265.027c.039.008.075.023.113.034a1.26,1.26,0,0,1,.132.041,1.325,1.325,0,0,1,.152.08c.023.013.047.023.069.037a1.314,1.314,0,0,1,.168.134c.008.007.017.013.024.02a1.33,1.33,0,0,1,.408.9h5.145a1.227,1.227,0,0,0,1.227-1.227V14.579A1.256,1.256,0,0,0,21.007,13.352Zm-8.726,0a1.184,1.184,0,0,1,1.121-.817h2.359a1.184,1.184,0,0,1,1.121.817Z" fill="#343434"/>
    </g>
    <path id="Icon_open-arrow-thick-left" data-name="Icon open-arrow-thick-left" d="M3.418,0,0,3.452,3.418,6.836V4.557h9.7V2.279h-9.7Z" transform="translate(1101.963 1086.82) rotate(180)" fill="#343434" stroke="#fff" stroke-width="1"/>
  </g>
</svg>
